<svg width="602" height="385" viewBox="0 0 602 385" fill="none" xmlns="http://www.w3.org/2000/svg">
<rect x="123.386" y="164.357" width="113.896" height="19.6139" fill="#DBF227"/>
<rect x="280.75" y="164.357" width="228.879" height="19.6139" fill="#F21BC0"/>
<rect x="93" y="313.726" width="181.525" height="19.6139" fill="#68CFBD"/>
<rect x="317.144" y="313.726" width="172.054" height="19.6139" fill="#DBF227"/>
<rect x="123.386" y="263.937" width="151.139" height="19.6139" fill="#F21BC0"/>
<rect x="93" y="64.7805" width="113.896" height="19.6139" fill="#DBF227"/>
<rect x="229.81" y="64.7805" width="113.896" height="19.6139" fill="#05E6E6"/>
<rect x="123.386" y="114.569" width="183.893" height="19.6139" fill="#68CFBD"/>
<rect x="375.153" y="114.569" width="113.896" height="19.6139" fill="#05E6E6"/>
<rect x="93" y="214.146" width="246.884" height="19.6139" fill="#05E6E6"/>
<rect x="364.103" y="214.146" width="124.921" height="19.6139" fill="#129999"/>
<rect x="192.56" y="159.285" width="87.6908" height="56.0073" fill="#4E4B4B"/>
<rect x="172.623" y="178.083" width="39.6562" height="58.5051" fill="#4E4B4B"/>
<rect x="192.56" y="227.652" width="63.8486" height="28.583" fill="#4E4B4B"/>
<rect x="207.107" y="206.922" width="73.2777" height="29.6646" fill="#4E4B4B"/>
<rect x="320.041" y="159.13" width="81.0366" height="77.4575" fill="#4E4B4B"/>
<rect x="334.697" y="227.524" width="66.381" height="28.8405" fill="#4E4B4B"/>
<rect x="390.732" y="178.083" width="31.0353" height="58.5051" fill="#4E4B4B"/>
<rect x="129.519" y="159.13" width="22.4144" height="77.4575" fill="#4E4B4B"/>
<rect x="150.21" y="117.928" width="22.4144" height="41.2008" fill="#4E4B4B"/>
<rect x="171.761" y="80.8484" width="22.4144" height="37.0807" fill="#4E4B4B"/>
<rect x="403.664" y="80.8484" width="22.4144" height="37.0807" fill="#4E4B4B"/>
<rect x="426.079" y="117.928" width="22.4144" height="37.0807" fill="#4E4B4B"/>
<rect x="448.493" y="155.01" width="22.4144" height="81.5775" fill="#4E4B4B"/>
<rect x="189.866" y="279.436" width="23.2765" height="60.1531" fill="#4E4B4B"/>
<rect x="381.251" y="279.436" width="22.4144" height="60.1531" fill="#4E4B4B"/>
<rect x="403.664" y="259.659" width="22.4144" height="19.7764" fill="#4E4B4B"/>
<rect x="318.317" y="319.813" width="22.4144" height="19.7764" fill="#4E4B4B"/>
<rect x="253.661" y="319.813" width="24.1386" height="19.7764" fill="#4E4B4B"/>
<rect x="426.079" y="239.883" width="22.4144" height="19.7764" fill="#4E4B4B"/>
<rect x="145.037" y="236.588" width="22.4144" height="23.0724" fill="#4E4B4B"/>
<rect x="167.452" y="259.659" width="22.4144" height="19.7764" fill="#4E4B4B"/>
<rect x="277.8" y="256.364" width="42.2425" height="19.7764" fill="#4E4B4B"/>
<rect x="277.8" y="276.14" width="42.2425" height="19.7764" fill="#4E4B4B"/>
<rect x="213.143" y="339.59" width="168.108" height="19.7764" fill="#4E4B4B"/>
<rect x="194.175" y="58.6003" width="39.6562" height="22.2484" fill="#4E4B4B"/>
<rect x="364.008" y="58.6003" width="39.6562" height="22.2484" fill="#4E4B4B"/>
<rect x="233.832" y="38" width="130.176" height="22.2484" fill="#4E4B4B"/>
<rect x="194.175" y="80.8484" width="216.385" height="86.5216" fill="#FFFDFD"/>
<rect x="233.832" y="60.2478" width="130.176" height="86.5216" fill="#FFFDFD"/>
<rect x="172.623" y="116.281" width="21.5523" height="61.8012" fill="#FFFDFD"/>
<rect x="150.21" y="159.13" width="22.4144" height="77.4575" fill="#FFFDFD"/>
<rect x="421.768" y="155.01" width="26.7248" height="84.8736" fill="#FFFDFD"/>
<rect x="340.731" y="256.364" width="40.5183" height="83.2256" fill="#FFFDFD"/>
<rect x="213.143" y="256.364" width="40.5183" height="83.2256" fill="#FFFDFD"/>
<rect x="189.866" y="256.364" width="40.5183" height="23.0724" fill="#FFFDFD"/>
<rect x="167.505" y="236.536" width="26.671" height="23.1754" fill="#FFFDFD"/>
<rect x="378.663" y="256.364" width="25.0006" height="23.0724" fill="#FFFDFD"/>
<rect x="401.078" y="236.588" width="25.0006" height="23.0724" fill="#FFFDFD"/>
<rect x="312.283" y="236.588" width="25.0006" height="19.7764" fill="#FFFDFD"/>
<rect x="255.384" y="236.588" width="25.0006" height="19.7764" fill="#FFFDFD"/>
<rect x="249.349" y="256.364" width="31.0353" height="63.4492" fill="#FFFDFD"/>
<rect x="277.8" y="295.916" width="40.5183" height="43.6728" fill="#FFFDFD"/>
<rect x="320.041" y="256.364" width="25.8627" height="63.4492" fill="#FFFDFD"/>
<rect x="301.938" y="295.916" width="43.9667" height="23.8965" fill="#FFFDFD"/>
<rect x="401.078" y="117.105" width="25.0006" height="60.9772" fill="#FFFDFD"/>
<rect x="280.385" y="162.427" width="21.5523" height="93.9378" fill="#FFFDFD"/>
<rect x="298.488" y="159.13" width="21.5523" height="97.2338" fill="#FFFDFD"/>
<path d="M602 191.898V210.547C588.015 210.547 578.218 214.056 572.607 221.074C567.08 228.092 564.317 239.823 564.317 256.266V304.391C564.317 318.227 563.187 330.208 560.926 340.334C558.748 350.46 555.148 358.832 550.123 365.449C545.099 372.066 538.4 376.979 530.026 380.187C521.652 383.396 511.31 385 499 385V355.523C508.714 355.523 516.334 353.669 521.861 349.959C527.472 346.35 531.407 340.785 533.668 333.266C536.013 325.746 537.185 316.121 537.185 304.391V244.234C537.185 236.414 538.023 229.296 539.698 222.879C541.456 216.462 544.638 210.948 549.244 206.336C553.85 201.724 560.381 198.165 568.839 195.658C577.38 193.152 588.434 191.898 602 191.898ZM499 0C511.31 0 521.652 1.60417 530.026 4.81252C538.4 8.02085 545.099 12.9336 550.123 19.5508C555.148 26.168 558.748 34.5397 560.926 44.666C563.187 54.7923 564.317 66.7734 564.317 80.6094V128.734C564.317 145.177 567.08 156.908 572.607 163.926C578.218 170.944 588.015 174.453 602 174.453V193.102C588.434 193.102 577.38 191.848 568.839 189.342C560.381 186.835 553.85 183.276 549.244 178.664C544.638 174.052 541.456 168.538 539.698 162.121C538.023 155.704 537.185 148.586 537.185 140.766V80.6094C537.185 68.8789 536.013 59.2539 533.668 51.7344C531.407 44.1146 527.472 38.5 521.861 34.8906C516.334 31.2813 508.714 29.4766 499 29.4766V0ZM602 174.453V210.547H572.356V174.453H602Z" fill="#DBF227" />
<path d="M0 193.102V174.453C13.9846 174.453 23.7402 170.944 29.2671 163.926C34.8776 156.908 37.6829 145.177 37.6829 128.734V80.6094C37.6829 66.7734 38.7715 54.7923 40.9488 44.666C43.2098 34.5397 46.8524 26.168 51.8768 19.5508C56.9012 12.9336 63.6004 8.02085 71.9744 4.81252C80.3484 1.60417 90.6902 0 103 0V29.4766C93.2862 29.4766 85.624 31.2813 80.0134 34.8906C74.4866 38.5 70.5508 44.1146 68.2061 51.7344C65.9451 59.2539 64.8146 68.8789 64.8146 80.6094V140.766C64.8146 148.586 63.9354 155.704 62.1768 162.121C60.502 168.538 57.3618 174.052 52.7561 178.664C48.1504 183.276 41.5768 186.835 33.0354 189.342C24.5776 191.848 13.5659 193.102 0 193.102ZM103 385C90.6902 385 80.3484 383.396 71.9744 380.187C63.6004 376.979 56.9012 372.066 51.8768 365.449C46.8524 358.832 43.2098 350.46 40.9488 340.334C38.7715 330.208 37.6829 318.227 37.6829 304.391V256.266C37.6829 239.823 34.8776 228.092 29.2671 221.074C23.7402 214.056 13.9846 210.547 0 210.547V191.898C13.5659 191.898 24.5776 193.152 33.0354 195.658C41.5768 198.165 48.1504 201.724 52.7561 206.336C57.3618 210.948 60.502 216.462 62.1768 222.879C63.9354 229.296 64.8146 236.414 64.8146 244.234V304.391C64.8146 316.121 65.9451 325.746 68.2061 333.266C70.5508 340.785 74.4866 346.35 80.0134 349.959C85.624 353.669 93.2862 355.523 103 355.523V385ZM0 210.547V174.453H29.6439V210.547H0Z" fill="#DBF227" />
</svg>
